<svg width="32" height="32" viewBox="0 0 32 32" fill="none" xmlns="http://www.w3.org/2000/svg">
<path fill-rule="evenodd" clip-rule="evenodd" d="M16 31C7.71571 31 1 24.2843 1 16C1 7.71589 7.71571 1 16 1C24.2843 1 31 7.71589 31 16C31 24.2843 24.2843 31 16 31Z" fill="#346FF1"/>
<path fill-rule="evenodd" clip-rule="evenodd" d="M8.13242 14.3357C8.13242 13.3744 8.91168 12.595 9.87315 12.595C10.8344 12.595 11.6139 13.3744 11.6139 14.3357C11.6139 15.2972 10.8344 16.0764 9.87315 16.0764C8.91168 16.0764 8.13242 15.2972 8.13242 14.3357Z" fill="#0D1D42"/>
<path fill-rule="evenodd" clip-rule="evenodd" d="M20.3205 14.3357C20.3205 13.3744 21.0997 12.595 22.0612 12.595C23.0227 12.595 23.8019 13.3744 23.8019 14.3357C23.8019 15.2972 23.0227 16.0764 22.0612 16.0764C21.0997 16.0764 20.3205 15.2972 20.3205 14.3357Z" fill="#0D1D42"/>
<path fill-rule="evenodd" clip-rule="evenodd" d="M25.7898 20.4697H6.14441C5.91545 20.4697 5.72993 20.2842 5.72993 20.0552C5.72993 19.8263 5.91545 19.6407 6.14441 19.6407H25.7898C26.0188 19.6407 26.2043 19.8263 26.2043 20.0552C26.2043 20.2842 26.0188 20.4697 25.7898 20.4697Z" fill="#0D1D42"/>
</svg>
