<svg width="24" height="24" viewBox="0 0 24 24" fill="none" xmlns="http://www.w3.org/2000/svg">
<path fill-rule="evenodd" clip-rule="evenodd" d="M17 2C17.5126 2 17.9355 2.38629 17.9933 2.88343L18 3V4H19C20.05 4 20.9178 4.82004 20.9945 5.85131L21 6V20C21 21.05 20.18 21.9178 19.1487 21.9945L19 22H5C3.95 22 3.08223 21.18 3.00551 20.1487L3 20V6C3 4.95 3.82004 4.08223 4.85131 4.00551L5 4H6V3C6 2.448 6.448 2 7 2C7.51257 2 7.93547 2.38629 7.99327 2.88343L8 3V4H16V3C16 2.448 16.448 2 17 2ZM4.5 10.9862V20C4.5 20.2414 4.68049 20.4487 4.91133 20.4918L5 20.5H19C19.2414 20.5 19.4487 20.3195 19.4918 20.0887L19.5 20V10.9862H4.5Z" fill="#000000"/>
</svg>
