<svg width="24" height="24" viewBox="0 0 24 24" fill="none" xmlns="http://www.w3.org/2000/svg">
<path fill-rule="evenodd" clip-rule="evenodd" d="M4.52822 3.00232H11.3199C11.6622 3.00232 11.9361 3.27618 11.9361 3.6185C11.9361 4.83451 12.8835 5.82835 14.0752 5.90906L14.2319 5.91435H19.4353C21.3149 5.91435 22.8575 7.39008 22.9583 9.24483L22.9635 9.438V18.3293C22.9635 20.2089 21.4835 21.7515 19.6285 21.8523L19.4353 21.8575H4.52822C2.64863 21.8575 1.10599 20.3775 1.00523 18.5225L1 18.3293V6.53054C1 4.65095 2.47999 3.10831 4.33502 3.00755L4.52822 3.00232H11.3199H4.52822ZM4.52822 4.30232C3.30179 4.30232 2.3 5.30411 2.3 6.53053V18.3293C2.3 19.5557 3.30179 20.5575 4.52822 20.5575H19.4353C20.6617 20.5575 21.6635 19.5557 21.6635 18.3293V9.438C21.6635 8.21296 20.6631 7.21435 19.4353 7.21435H14.232C12.5469 7.21435 11.1296 6.05217 10.7413 4.48491L10.7011 4.30232H4.52822Z" fill="white"/>
</svg>
