<svg id="Chart" xmlns="http://www.w3.org/2000/svg" width="75" height="75" viewBox="0 0 75 75">
  <rect id="Rectangle_2099" data-name="Rectangle 2099" width="75" height="75" rx="10" fill="none"/>
  <g id="Chart-icon" transform="translate(17 17)">
    <rect id="Rectangle_2052" data-name="Rectangle 2052" width="42" height="42" fill="none"/>
    <g id="Group_3965" data-name="Group 3965" transform="translate(7 6)">
      <path id="Path_4012" data-name="Path 4012" d="M4490.459,1659.343h-.778V1641.06a1,1,0,0,0-1-1h-3.515a1,1,0,0,0-1,1v18.283h-1.256V1646.48a1,1,0,0,0-1-1H4478.4a1,1,0,0,0-1,1v12.863h-1.256v-5.773a1,1,0,0,0-1-1h-3.515a1,1,0,0,0-1,1v5.773h-1.256V1650a1,1,0,0,0-1-1h-3.515a1,1,0,0,0-1,1v9.347h-.778a1,1,0,0,0,0,2h27.384a1,1,0,0,0,0-2Zm-4.293-17.283h1.515v16.721h-1.515Zm-6.771,5.42h1.515v11.3H4479.4Zm-6.771,7.09h1.515v4.211h-1.515Zm-6.771-3.574h1.515v7.785h-1.515Z" transform="translate(-4462.075 -1631.418)" fill="#58595b"/>
      <path id="Path_4013" data-name="Path 4013" d="M4466.611,1645.7a2.73,2.73,0,0,0,1.478-.438c.558.427,1.389,1,2.6,1.8a2.757,2.757,0,0,0,5.452-.58,2.8,2.8,0,0,0-.033-.334l2.906-4.194a2.721,2.721,0,0,0,1.141.255,2.761,2.761,0,0,0,2.757-2.758,2.722,2.722,0,0,0-.114-.742l2.714-2.176a2.726,2.726,0,0,0,1.414.4,2.758,2.758,0,1,0-2.758-2.757,2.718,2.718,0,0,0,.123.77l-2.7,2.162a2.747,2.747,0,0,0-3.994,3.372l-2.611,3.768a2.738,2.738,0,0,0-3.884.681c-.723-.491-1.4-.968-1.836-1.291a2.7,2.7,0,0,0,.1-.7,2.758,2.758,0,1,0-2.757,2.758Zm20.313-12.282a.758.758,0,1,1-.758.758A.758.758,0,0,1,4486.924,1633.418Zm-6.771,5.273a.758.758,0,1,1-.758.758A.758.758,0,0,1,4480.153,1638.691Zm-6.771,7.031a.758.758,0,1,1-.758.758A.758.758,0,0,1,4473.382,1645.722Zm-6.771-3.538a.758.758,0,0,1,.757.758.75.75,0,0,1-.061.3.862.862,0,0,0-.087.13.745.745,0,0,1-.609.331.758.758,0,0,1,0-1.516Z" transform="translate(-4462.075 -1631.418)" fill="#58595b"/>
    </g>
  </g>
</svg>
