<svg width="16" height="16" viewBox="0 0 16 16" fill="none" xmlns="http://www.w3.org/2000/svg">
<path fill-rule="evenodd" clip-rule="evenodd" d="M12.7857 12.7857C13.0714 12.5 13.0714 12.0714 12.7857 11.7857L9 8L12.7857 4.21429C13.0714 3.92857 13.0714 3.5 12.7857 3.21429C12.5 2.92857 12.0714 2.92857 11.7857 3.21429L8 7L4.21429 3.21429C3.92857 2.92857 3.5 2.92857 3.21429 3.21429C3.07143 3.35714 3 3.5 3 3.71429C3 3.92857 3.07143 4.07143 3.21429 4.21429L7 8L3.21429 11.7857C3.07143 11.9286 3 12.1429 3 12.2857C3 12.4286 3.07143 12.6429 3.21429 12.7857C3.5 13.0714 3.92857 13.0714 4.21429 12.7857L8 9L11.7857 12.7857C12.0714 13.0714 12.5 13.0714 12.7857 12.7857Z" fill="#2E323E"/>
</svg>
