<svg width="24" height="24" viewBox="0 0 24 24" fill="none" xmlns="http://www.w3.org/2000/svg">
<path fill-rule="evenodd" clip-rule="evenodd" d="M12 10.423L19.0964 3.3266C19.5319 2.89113 20.2379 2.89113 20.6734 3.3266C21.1089 3.76207 21.1089 4.46811 20.6734 4.90358L13.577 12L20.6734 19.0964C21.1089 19.5319 21.1089 20.2379 20.6734 20.6734C20.2379 21.1089 19.5319 21.1089 19.0964 20.6734L12 13.577L4.90358 20.6734C4.46811 21.1089 3.76207 21.1089 3.3266 20.6734C2.89113 20.2379 2.89113 19.5319 3.3266 19.0964L10.423 12L3.3266 4.90358C2.89113 4.46811 2.89113 3.76207 3.3266 3.3266C3.76207 2.89113 4.46811 2.89113 4.90358 3.3266L12 10.423Z" fill="#2E323E"/>
</svg>
