<svg width="32" height="32" viewBox="0 0 32 32" fill="none" xmlns="http://www.w3.org/2000/svg">
<path fill-rule="evenodd" clip-rule="evenodd" d="M15.9999 31C7.71557 31 1 24.2843 1 16C1 7.71589 7.71557 1 15.9999 1C24.2842 1 31 7.71589 31 16C31 24.2843 24.2842 31 15.9999 31Z" fill="#ED5454"/>
<path fill-rule="evenodd" clip-rule="evenodd" d="M10.8193 16.7559C10.8193 17.8238 10.2562 18.6896 9.56174 18.6896C8.86714 18.6896 8.30395 17.8238 8.30395 16.7559C8.30395 15.6879 8.86714 14.8221 9.56174 14.8221C10.2562 14.8221 10.8193 15.6879 10.8193 16.7559Z" fill="#4B1717"/>
<path fill-rule="evenodd" clip-rule="evenodd" d="M23.396 16.7559C23.396 17.8238 22.8328 18.6896 22.1384 18.6896C21.4438 18.6896 20.8806 17.8238 20.8806 16.7559C20.8806 15.6879 21.4438 14.8221 22.1384 14.8221C22.8328 14.8221 23.396 15.6879 23.396 16.7559Z" fill="#4B1717"/>
<path fill-rule="evenodd" clip-rule="evenodd" d="M20.3129 25.0687C21.391 25.0687 22.1318 24.0492 21.6774 23.1573C20.7537 21.3448 18.5552 20.0693 15.9903 20.0693C13.4254 20.0693 11.2269 21.3448 10.3032 23.1573C9.84877 24.0492 10.5896 25.0687 11.6677 25.0687H20.3129Z" fill="#4B1717"/>
<path fill-rule="evenodd" clip-rule="evenodd" d="M3.79887 13.8005C3.88279 13.9393 4.05212 14.0573 4.32028 14.1208C6.54654 14.6492 10.9252 13.975 11.283 11.4127C11.3416 10.9932 11.1047 9.97028 10.4438 10.4565C9.74807 10.9686 9.27212 11.6799 8.55414 12.1807C7.84979 12.6723 7.02562 12.9445 6.13353 12.9156C5.55359 12.897 4.9247 12.78 4.35709 12.9406C3.84672 13.0853 3.61316 13.4935 3.79887 13.8005Z" fill="#4B1717"/>
<path fill-rule="evenodd" clip-rule="evenodd" d="M28.1354 13.8005C28.0515 13.9393 27.8822 14.0573 27.614 14.1208C25.3877 14.6492 21.009 13.975 20.6512 11.4127C20.5927 10.9932 20.8298 9.97028 21.4905 10.4565C22.1862 10.9686 22.6622 11.6799 23.3801 12.1807C24.0847 12.6723 24.9087 12.9445 25.8007 12.9156C26.3807 12.897 27.0096 12.78 27.5774 12.9406C28.0877 13.0853 28.3211 13.4935 28.1354 13.8005Z" fill="#4B1717"/>
</svg>
