<svg width="24" height="24" viewBox="0 0 24 24" fill="none" xmlns="http://www.w3.org/2000/svg">
<path fill-rule="evenodd" clip-rule="evenodd" d="M17.8784 4.39333H14.7689C14.6138 3.04828 13.4694 2 12.0834 2C10.6974 2 9.55321 3.04824 9.3981 4.39333H6.28845C5.03006 4.39333 4.00642 5.41727 4.00642 6.67561V6.79271C4.00642 7.75433 4.60518 8.57739 5.44865 8.91275V19.6941C5.44865 20.9525 6.47242 21.9764 7.73072 21.9764H16.4361C17.6945 21.9764 18.7182 20.9524 18.7182 19.6941V8.9128C19.5616 8.57739 20.1604 7.75433 20.1604 6.79275V6.67565C20.1604 5.41727 19.1367 4.39333 17.8784 4.39333ZM12.0834 3.08236C12.8717 3.08236 13.5296 3.64737 13.6752 4.39333H10.4918C10.6374 3.64733 11.2954 3.08236 12.0834 3.08236ZM16.4361 20.894C17.0975 20.894 17.6358 20.3557 17.6358 19.6941V9.07499H6.53097V19.6941C6.53097 20.3557 7.06928 20.894 7.73068 20.894H16.4361ZM19.0781 6.79271C19.0781 7.45433 18.5398 7.99267 17.8783 7.99267H6.28845C5.62704 7.99267 5.08874 7.45433 5.08874 6.79271V6.67561C5.08874 6.014 5.62704 5.47565 6.28845 5.47565H17.8784C18.5398 5.47565 19.0781 6.014 19.0781 6.67561V6.79271H19.0781ZM9.72311 18.9687C9.72311 19.2675 9.48083 19.5099 9.18195 19.5099C8.88306 19.5099 8.64075 19.2676 8.64079 18.9687V12.8754C8.64079 12.5766 8.88311 12.3342 9.18195 12.3342C9.48079 12.3342 9.72311 12.5766 9.72311 12.8754V18.9687ZM12.0834 19.5099C12.3823 19.5099 12.6246 19.2675 12.6246 18.9687V12.8754C12.6246 12.5766 12.3822 12.3342 12.0834 12.3342C11.7846 12.3342 11.5422 12.5766 11.5422 12.8754V18.9687C11.5422 19.2676 11.7845 19.5099 12.0834 19.5099ZM15.526 18.9687C15.526 19.2675 15.2837 19.5099 14.9848 19.5099C14.686 19.5099 14.4436 19.2676 14.4436 18.9687V12.8754C14.4436 12.5766 14.6859 12.3342 14.9848 12.3342C15.2836 12.3342 15.526 12.5766 15.526 12.8754V18.9687Z" fill="#2E323E"/>
</svg>
