<svg id="Event" xmlns="http://www.w3.org/2000/svg" width="75" height="75" viewBox="0 0 75 75">
  <rect id="Rectangle_2102" data-name="Rectangle 2102" width="75" height="75" rx="10" transform="translate(0)" fill="none"/>
  <g id="Events-icon" transform="translate(17 17)">
    <rect id="Rectangle_2052" data-name="Rectangle 2052" width="42" height="42" transform="translate(0)" fill="none"/>
    <g id="Group_3969" data-name="Group 3969" transform="translate(6 6)">
      <path id="Path_4021" data-name="Path 4021" d="M4610.854,1634.327h-5.961V1632a1,1,0,0,0-2,0v2.326h-12.5V1632a1,1,0,0,0-2,0v2.326h-5.962a1,1,0,0,0-1,1v24.883a1,1,0,0,0,1,1h28.418a1,1,0,0,0,1-1v-24.883A1,1,0,0,0,4610.854,1634.327Zm-22.456,2a1,1,0,0,0,2,0h12.5a1,1,0,0,0,2,0h4.961v4.442h-26.418v-4.442Zm-4.962,22.883v-16.441h26.418v16.441Z" transform="translate(-4581.436 -1631.001)" fill="#58595b"/>
      <path id="Path_4022" data-name="Path 4022" d="M4601.43,1647.8l-2.382-.347-1.065-2.158a1.492,1.492,0,0,0-2.675,0l-1.065,2.158-2.382.347a1.49,1.49,0,0,0-.826,2.542l1.724,1.68-.408,2.372a1.492,1.492,0,0,0,2.164,1.572l2.13-1.12,2.131,1.12a1.492,1.492,0,0,0,2.164-1.572l-.408-2.372,1.724-1.68a1.49,1.49,0,0,0-.826-2.542Zm-2.483,2.975a1.488,1.488,0,0,0-.431,1.321l.278,1.621-1.455-.765a1.486,1.486,0,0,0-1.388,0l-1.454.764.278-1.62a1.49,1.49,0,0,0-.429-1.319l-1.176-1.147,1.627-.237a1.491,1.491,0,0,0,1.121-.815l.727-1.474.729,1.476a1.49,1.49,0,0,0,1.121.813l1.626.237Z" transform="translate(-4581.436 -1631.001)" fill="#58595b"/>
    </g>
  </g>
</svg>
