<svg width="32" height="32" viewBox="0 0 32 32" fill="none" xmlns="http://www.w3.org/2000/svg">
<path fill-rule="evenodd" clip-rule="evenodd" d="M16.0001 31C7.71575 31 1 24.2843 1 16.0002C1 7.71589 7.71575 1 16.0001 1C24.2844 1 31 7.71589 31 16.0002C31 24.2843 24.2844 31 16.0001 31Z" fill="#58CB7D"/>
<path fill-rule="evenodd" clip-rule="evenodd" d="M21.4048 18.8809C22.0664 18.8809 22.5486 19.5033 22.39 20.1456C21.7408 22.7729 19.1119 24.739 15.9672 24.739C12.8226 24.739 10.1934 22.7729 9.54447 20.1456C9.38563 19.5033 9.86784 18.8809 10.5297 18.8809H21.4048Z" fill="#173521"/>
<path fill-rule="evenodd" clip-rule="evenodd" d="M10.9984 13.199C11.3369 13.7738 11.5002 14.6016 10.9966 15.0389C10.5838 15.3974 9.96225 15.2905 9.41894 15.2285C8.04906 15.0728 6.63262 15.3549 5.42728 16.0241C5.34906 16.0676 5.26992 16.1132 5.18176 16.129C5.00305 16.1611 4.81624 16.0556 4.72569 15.8981C4.55912 15.6084 4.71115 15.2196 4.97379 15.013C5.23642 14.8063 5.57839 14.7369 5.90655 14.6736C7.28949 14.4063 8.72526 14.1398 10.0922 14.4794C10.1581 14.4958 10.2275 14.5136 10.293 14.4956C10.5116 14.4356 10.454 14.1047 10.3239 13.9188C9.86875 13.2684 9.1309 12.8682 8.37612 12.6218C7.75698 12.4197 6.02066 12.3816 5.63673 11.8355C5.1317 11.1168 6.60078 10.7252 7.10986 10.7535C8.54084 10.8332 10.2875 11.992 10.9984 13.199Z" fill="#173521"/>
<path fill-rule="evenodd" clip-rule="evenodd" d="M20.9359 13.199C20.5975 13.7738 20.434 14.6016 20.9378 15.0389C21.3506 15.3974 21.972 15.2905 22.5155 15.2285C23.8851 15.0728 25.3016 15.3549 26.5071 16.0241C26.5851 16.0676 26.6645 16.1132 26.7524 16.129C26.9313 16.1611 27.1182 16.0556 27.2087 15.8981C27.3753 15.6084 27.2232 15.2196 26.9604 15.013C26.6978 14.8063 26.356 14.7369 26.0278 14.6736C24.6449 14.4063 23.2091 14.1398 21.842 14.4794C21.7761 14.4958 21.7069 14.5136 21.6414 14.4956C21.4226 14.4356 21.4804 14.1047 21.6105 13.9188C22.0655 13.2684 22.8035 12.8682 23.5583 12.6218C24.1772 12.4197 25.9137 12.3816 26.2975 11.8355C26.8027 11.1168 25.3336 10.7252 24.8245 10.7535C23.3934 10.8332 21.6469 11.992 20.9359 13.199Z" fill="#173521"/>
</svg>
