<svg width="24" height="24" viewBox="0 0 24 24" fill="none" xmlns="http://www.w3.org/2000/svg">
<path fill-rule="evenodd" clip-rule="evenodd" d="M3.93257 3.93443C3.41008 3.9426 2.99285 4.37225 3 4.89475V19.1053C3 20.1408 3.85921 21 4.89474 21H19.1053C19.4469 21.0048 19.7647 20.8253 19.9369 20.5302C20.1092 20.2351 20.1092 19.8702 19.9369 19.575C19.7647 19.2799 19.4469 19.1004 19.1053 19.1053H4.89474V4.89475C4.89825 4.63868 4.79794 4.39209 4.61668 4.21117C4.43542 4.03026 4.18864 3.93043 3.93257 3.93443ZM18.1394 7.7276C17.8933 7.73494 17.6597 7.8378 17.4881 8.0144L14.3536 11.1489L12.1813 9.07094C11.8135 8.71909 11.2334 8.72072 10.8676 9.07464L7.07813 12.7401C6.83015 12.9744 6.72728 13.324 6.8088 13.6552C6.89033 13.9865 7.14366 14.2484 7.47205 14.3408C7.80044 14.4333 8.15318 14.3421 8.39556 14.102L11.53 11.0693L13.7134 13.1583C14.0856 13.5143 14.6741 13.5077 15.0382 13.1435L18.8277 9.35404C19.1079 9.08168 19.1922 8.66524 19.0399 8.30539C18.8876 7.94553 18.53 7.71609 18.1394 7.7276V7.7276Z" fill="#2E323E"/>
</svg>
