<svg width="24" height="24" viewBox="0 0 24 24" fill="none" xmlns="http://www.w3.org/2000/svg">
<path fill-rule="evenodd" clip-rule="evenodd" d="M12.0001 3C12.2126 3 12.4146 3.06558 12.5804 3.18664L12.6754 3.26585L21.2614 11.4277C21.549 11.701 21.5153 11.936 21.4698 12.0475C21.4291 12.1466 21.3171 12.311 21.0123 12.3463L20.8887 12.3531H19.8933V19.6072C19.8933 20.3055 19.3363 20.9231 18.6459 20.9934L18.515 21H14.0485V16.0831H9.83688V21H5.48496C4.78181 21 4.15602 20.435 4.08483 19.7391L4.07809 19.6072V12.3531H3.11131C2.71197 12.3531 2.57583 12.159 2.53019 12.0475C2.48969 11.9483 2.45864 11.7517 2.65423 11.5172L2.73862 11.4277L11.3248 3.26585C11.505 3.09435 11.7449 3 12.0001 3ZM11.999 4.694L5.519 10.853L5.57809 10.8531L5.578 19.5H8.336L8.33688 14.5831H15.5485L15.548 19.5H18.393L18.3933 10.8531L18.48 10.853L11.999 4.694Z" fill="white"/>
</svg>
