<svg id="Image" xmlns="http://www.w3.org/2000/svg" width="75" height="75" viewBox="0 0 75 75">
  <rect id="Rectangle_2100" data-name="Rectangle 2100" width="75" height="75" rx="10" fill="none"/>
  <g id="Image-icon" transform="translate(17 17)">
    <rect id="Rectangle_2052" data-name="Rectangle 2052" width="42" height="42" fill="none"/>
    <g id="Group_3968" data-name="Group 3968" transform="translate(6 6)">
      <g id="Group_3966" data-name="Group 3966">
        <path id="Path_4014" data-name="Path 4014" d="M4530.917,1630.792h-3.873a1,1,0,0,0,0,2h3.873a2.681,2.681,0,0,1,2.677,2.678v3.873a1,1,0,0,0,2,0v-3.873A4.683,4.683,0,0,0,4530.917,1630.792Z" transform="translate(-4505.134 -1630.792)" fill="#58595b"/>
        <path id="Path_4015" data-name="Path 4015" d="M4506.134,1640.343a1,1,0,0,0,1-1v-3.873a2.681,2.681,0,0,1,2.678-2.678h3.872a1,1,0,0,0,0-2h-3.872a4.683,4.683,0,0,0-4.678,4.678v3.873A1,1,0,0,0,4506.134,1640.343Z" transform="translate(-4505.134 -1630.792)" fill="#58595b"/>
        <path id="Path_4016" data-name="Path 4016" d="M4513.684,1659.252h-3.872a2.68,2.68,0,0,1-2.678-2.677V1652.7a1,1,0,1,0-2,0v3.873a4.682,4.682,0,0,0,4.678,4.677h3.872a1,1,0,0,0,0-2Z" transform="translate(-4505.134 -1630.792)" fill="#58595b"/>
        <path id="Path_4017" data-name="Path 4017" d="M4534.594,1651.7a1,1,0,0,0-1,1v3.873a2.68,2.68,0,0,1-2.677,2.677h-3.873a1,1,0,0,0,0,2h3.873a4.682,4.682,0,0,0,4.677-4.677V1652.7A1,1,0,0,0,4534.594,1651.7Z" transform="translate(-4505.134 -1630.792)" fill="#58595b"/>
      </g>
      <g id="Group_3967" data-name="Group 3967" transform="translate(4.378 4.141)">
        <path id="Path_4018" data-name="Path 4018" d="M4509.512,1635.933v19.7a1,1,0,0,0,1,1h19.7a1,1,0,0,0,1-1v-19.7a1,1,0,0,0-1-1h-19.7A1,1,0,0,0,4509.512,1635.933Zm2,18.7v-1.017h.752a1,1,0,0,0,.707-.293l3.559-3.559,2.228,2.219a1,1,0,0,0,1.423-.011l4.019-4.131,2.694,2.776a1,1,0,0,0,.717.3h1.6v3.712Zm17.7-17.7v11.992h-1.181l-3.117-3.212a.993.993,0,0,0-.717-.3h0a1,1,0,0,0-.717.3l-4.031,4.144-2.219-2.209a1,1,0,0,0-1.412,0l-3.972,3.972h-.338v-14.687Z" transform="translate(-4509.512 -1634.933)" fill="#58595b"/>
        <path id="Path_4019" data-name="Path 4019" d="M4520.141,1644.322a3.186,3.186,0,1,0-3.187-3.186A3.191,3.191,0,0,0,4520.141,1644.322Zm0-4.372a1.186,1.186,0,1,1-1.187,1.186A1.188,1.188,0,0,1,4520.141,1639.95Z" transform="translate(-4509.512 -1634.933)" fill="#58595b"/>
      </g>
    </g>
  </g>
</svg>
