<svg width="24" height="24" viewBox="0 0 24 24" fill="none" xmlns="http://www.w3.org/2000/svg">
<path fill-rule="evenodd" clip-rule="evenodd" d="M9.99999 3.25H14C14.4142 3.25 14.75 3.58579 14.75 4V20C14.75 20.4142 14.4142 20.75 14 20.75H9.99999C9.58578 20.75 9.24999 20.4142 9.24999 20V4C9.24999 3.58579 9.58578 3.25 9.99999 3.25ZM13.25 4.75H10.75V19.25H13.25V4.75ZM2.99999 11.25H6.99999C7.41421 11.25 7.74999 11.5858 7.74999 12V20C7.74999 20.4142 7.41421 20.75 6.99999 20.75H2.99899C2.58474 20.75 2.24894 20.4142 2.24899 19.9999L2.24999 11.9999C2.25004 11.5857 2.58582 11.25 2.99999 11.25ZM6.24899 19.25V12.75H3.74899L3.74799 19.25H6.24899ZM21 7.25H17C16.5858 7.25 16.25 7.58579 16.25 8V20C16.25 20.4142 16.5858 20.75 17 20.75H21C21.4142 20.75 21.75 20.4142 21.75 20V8C21.75 7.58579 21.4142 7.25 21 7.25ZM20.25 8.749V19.249H17.75V8.749H20.25Z" fill="white"/>
</svg>
