<svg width="16" height="16" viewBox="0 0 16 16" fill="none" xmlns="http://www.w3.org/2000/svg">
<path fill-rule="evenodd" clip-rule="evenodd" d="M14.5854 8.82458C14.8619 8.40941 15 7.9524 15 7.45322C15 6.87545 14.7858 6.37361 14.3571 5.94692C13.9282 5.52067 13.4203 5.30759 12.8336 5.30759H11.3439C11.6147 4.75237 11.7503 4.21385 11.7503 3.6923C11.7503 3.03603 11.6513 2.51445 11.454 2.12743C11.2565 1.74028 10.9686 1.45572 10.5905 1.27334C10.2124 1.09105 9.78651 1 9.31255 1C9.02465 1 8.77083 1.10376 8.55078 1.31135C8.3082 1.54689 8.13327 1.84984 8.02611 2.22004C7.91888 2.59013 7.83279 2.94495 7.76796 3.28429C7.70313 3.62361 7.60287 3.86339 7.46752 4.0036C7.19096 4.30087 6.88913 4.65993 6.56185 5.08055C5.99197 5.81523 5.60541 6.24997 5.40237 6.38463H3.08335C2.7843 6.38463 2.52894 6.48995 2.31734 6.70011C2.10583 6.91048 2 7.16429 2 7.46158V12.846C2 13.1433 2.10571 13.397 2.31734 13.6074C2.52906 13.8177 2.7843 13.923 3.08335 13.923H5.52074C5.64489 13.923 6.03415 14.0351 6.6887 14.2595C7.38276 14.5007 7.99356 14.6844 8.52108 14.8106C9.04866 14.9369 9.58329 15 10.125 15H10.9119H11.2168C12.0123 15 12.6527 14.7741 13.138 14.3225C13.6231 13.871 13.8631 13.2554 13.8575 12.4758C14.196 12.0439 14.3653 11.5447 14.3653 10.9783C14.3653 10.855 14.3569 10.7344 14.3399 10.6165C14.5542 10.2408 14.6617 9.83699 14.6617 9.40509C14.6616 9.20315 14.6362 9.00954 14.5854 8.82458ZM4.00592 12.6862C3.89872 12.7927 3.77178 12.8462 3.62507 12.8462C3.47833 12.8462 3.35137 12.7928 3.24414 12.6862C3.13698 12.5798 3.08335 12.4535 3.08335 12.3076C3.08335 12.1618 3.13686 12.0356 3.24414 11.929C3.35149 11.8224 3.47833 11.7691 3.62507 11.7691C3.77178 11.7691 3.89872 11.8224 4.00592 11.929C4.11314 12.0356 4.16677 12.1617 4.16677 12.3076C4.16677 12.4535 4.11314 12.5798 4.00592 12.6862ZM13.7351 8.14349C13.6137 8.40145 13.4628 8.53326 13.2822 8.5388C13.3668 8.63419 13.4374 8.76753 13.4939 8.93844C13.5502 9.10956 13.5783 9.26514 13.5783 9.40544C13.5783 9.79226 13.4289 10.1261 13.1299 10.4064C13.2315 10.5858 13.2823 10.7794 13.2823 10.9868C13.2823 11.1944 13.233 11.4005 13.1342 11.6052C13.0355 11.8097 12.9014 11.957 12.7322 12.0467C12.7604 12.2149 12.7744 12.372 12.7744 12.5178C12.7744 13.4544 12.2327 13.9228 11.1492 13.9228H10.1254C9.38607 13.9228 8.42135 13.7182 7.23069 13.3086C7.20244 13.2974 7.12074 13.2679 6.98523 13.2203C6.84973 13.1727 6.74962 13.1376 6.6847 13.1152C6.61978 13.0926 6.52112 13.0604 6.38843 13.0184C6.25577 12.9763 6.1487 12.9454 6.06682 12.9258C5.98506 12.9063 5.89189 12.888 5.7876 12.8712C5.68325 12.8543 5.59435 12.846 5.52101 12.846H5.25018V7.46179H5.52101C5.61128 7.46179 5.71141 7.43648 5.82145 7.38612C5.93146 7.33561 6.04438 7.25991 6.16002 7.15892C6.27572 7.05794 6.38425 6.9584 6.48587 6.86018C6.58746 6.76205 6.70029 6.63867 6.82447 6.4901C6.94859 6.3414 7.04591 6.22227 7.1165 6.13251C7.18699 6.04278 7.27584 5.92774 7.38306 5.78753C7.49022 5.64736 7.55517 5.5632 7.57773 5.53511C7.88802 5.15377 8.10526 4.89859 8.22938 4.76952C8.46072 4.52841 8.62857 4.22133 8.73295 3.84833C8.83744 3.47527 8.92347 3.12331 8.99094 2.79245C9.05859 2.46156 9.16593 2.22311 9.31282 2.07727C9.85436 2.07727 10.2156 2.20902 10.3961 2.47267C10.5766 2.73626 10.6669 3.14294 10.6669 3.6926C10.6669 4.02349 10.5313 4.47357 10.2604 5.04283C9.98966 5.61214 9.85436 6.05946 9.85436 6.38475H12.8335C13.1159 6.38475 13.3669 6.49266 13.5868 6.70872C13.807 6.92463 13.9172 7.17557 13.9172 7.4617C13.9171 7.65798 13.8564 7.88518 13.7351 8.14349Z" fill="#2E323E"/>
</svg>
