<svg width="24" height="24" viewBox="0 0 24 24" fill="none" xmlns="http://www.w3.org/2000/svg">
<path fill-rule="evenodd" clip-rule="evenodd" d="M5 6C5 6.82843 4.32843 7.5 3.5 7.5C2.67157 7.5 2 6.82843 2 6C2 5.17157 2.67157 4.5 3.5 4.5C4.32843 4.5 5 5.17157 5 6ZM21.0264 7H7.97396C7.43601 7 7 6.55233 7 6C7 5.44767 7.43601 5 7.97396 5H21.026C21.564 5 22 5.44767 22 6C22 6.55233 21.5643 7 21.0264 7ZM7.97396 13H21.0264C21.5643 13 22.0003 12.5523 22 12C22 11.4477 21.564 11 21.026 11H7.97396C7.43601 11 7 11.4477 7 12C7 12.5523 7.43601 13 7.97396 13ZM7.97396 19H21.0264C21.5643 19 22 18.5523 22 18C22 17.4477 21.564 17 21.026 17H7.97396C7.43601 17 7 17.4477 7 18C7 18.5523 7.43601 19 7.97396 19ZM3.5 13.5C4.32843 13.5 5 12.8284 5 12C5 11.1716 4.32843 10.5 3.5 10.5C2.67157 10.5 2 11.1716 2 12C2 12.8284 2.67157 13.5 3.5 13.5ZM5 18C5 18.8284 4.32843 19.5 3.5 19.5C2.67157 19.5 2 18.8284 2 18C2 17.1716 2.67157 16.5 3.5 16.5C4.32843 16.5 5 17.1716 5 18Z" fill="#2E323E"/>
</svg>
