<svg width="24" height="24" viewBox="0 0 24 24" fill="none" xmlns="http://www.w3.org/2000/svg">
<path fill-rule="evenodd" clip-rule="evenodd" d="M4.16876 7H19.8316C20.4772 7 21 6.55233 21 6C21 5.44767 20.4768 5 19.8312 5H4.16876C3.52321 5 3 5.44767 3 6C3 6.55233 3.52321 7 4.16876 7ZM19.8316 13H4.16876C3.52321 13 3 12.5523 3 12C3 11.4477 3.52321 11 4.16876 11H19.8312C20.4768 11 21 11.4477 21 12C21.0004 12.5523 20.4772 13 19.8316 13ZM19.8316 19H4.16876C3.52321 19 3 18.5523 3 18C3 17.4477 3.52321 17 4.16876 17H19.8312C20.4768 17 21 17.4477 21 18C21 18.5523 20.4772 19 19.8316 19Z" fill="#000000"/>
</svg>
