<svg width="24" height="24" viewBox="0 0 24 24" fill="none" xmlns="http://www.w3.org/2000/svg">
<path fill-rule="evenodd" clip-rule="evenodd" d="M9.79905 20.4192C10.4413 20.4192 10.8421 21.1151 10.5199 21.6706C10.1024 22.3903 9.33333 22.8333 8.50132 22.8333C7.66931 22.8333 6.90023 22.3903 6.48276 21.6706C6.17945 21.1478 6.51667 20.5005 7.09285 20.4262L7.20359 20.4192H9.79905ZM8.50132 6.16663C11.7852 6.16663 14.4614 8.76823 14.5814 12.0228L14.5856 12.2509V16.0016C14.5856 16.7381 15.1476 17.3435 15.8662 17.4121L16.1259 17.4258C17.0315 17.5347 17.0709 18.8429 16.244 19.056L16.1259 19.0781L16.0026 19.0853H0.99999L0.876716 19.0781C-0.0700299 18.9643 -0.0700299 17.5396 0.876716 17.4258L1.13646 17.4121C1.81015 17.3478 2.34619 16.8117 2.41057 16.138L2.41706 16.0016V12.2509C2.41706 8.89064 5.14107 6.16663 8.50132 6.16663ZM8.50132 7.83329C6.13331 7.83329 4.20046 9.69649 4.08882 12.0369L4.08372 12.2509V16.0016C4.08372 16.4071 4.00545 16.7943 3.8632 17.1489L3.77029 17.3577L3.73799 17.418H13.264L13.2323 17.3577C13.0918 17.0712 12.9945 16.7597 12.9487 16.4317L12.9242 16.1827L12.9189 16.0016V12.2509C12.9189 9.81112 10.9411 7.83329 8.50132 7.83329Z" fill="#2E323E"/>
<path fill-rule="evenodd" clip-rule="evenodd" d="M19.75 7.83333C21.3608 7.83333 22.6667 6.5275 22.6667 4.91667C22.6667 3.30584 21.3608 2 19.75 2C18.1392 2 16.8333 3.30584 16.8333 4.91667C16.8333 6.5275 18.1392 7.83333 19.75 7.83333Z" fill="#F4392B"/>
</svg>
