<svg id="ToDo" xmlns="http://www.w3.org/2000/svg" width="75" height="75" viewBox="0 0 75 75">
  <rect id="Rectangle_2101" data-name="Rectangle 2101" width="75" height="75" rx="10" fill="none"/>
  <g id="ToDo-icon" transform="translate(17 17)">
    <rect id="Rectangle_2052" data-name="Rectangle 2052" width="42" height="42" fill="none"/>
    <path id="Path_4020" data-name="Path 4020" d="M4565.3,1630.9l-.7.855c-.081.1-1.772,2.2-1.3,4.3l-7.544,6.462c-1.625-.21-6.925-.631-9.723,2.166l-.707.707,7.138,7.137-5.988,5.988a1,1,0,1,0,1.414,1.414l5.988-5.988,7.137,7.138.707-.707c2.8-2.8,2.374-8.1,2.166-9.723l6.462-7.543c2.1.469,4.205-1.22,4.3-1.3l.855-.7Zm5.191,10.151-.7-.359-8.019,9.362.079.464c.01.053.81,4.869-.917,7.652l-6.345-6.345h0l-6.344-6.344c2.782-1.729,7.6-.928,7.651-.918l.464.08,9.362-8.019-.358-.7a2.275,2.275,0,0,1,.2-1.934l6.866,6.864A2.264,2.264,0,0,1,4570.489,1641.053Z" transform="translate(-4539.325 -1624.902)" fill="#58595b"/>
  </g>
</svg>
