<svg width="16" height="16" viewBox="0 0 16 16" fill="none" xmlns="http://www.w3.org/2000/svg">
<path fill-rule="evenodd" clip-rule="evenodd" d="M13.7319 4.64364L11.3563 2.26814C10.9988 1.91062 10.4194 1.91062 10.0615 2.26814C9.88986 2.43976 9.79345 2.67218 9.79345 2.91496C9.79345 3.09265 9.84612 3.26509 9.94138 3.41221L6.76742 6.14239C6.44058 5.99118 6.08306 5.90783 5.71575 5.90783C5.05175 5.90783 4.41475 6.17139 3.94448 6.64169C3.60163 6.98489 3.60163 7.54063 3.94448 7.88383L5.3721 9.31183L2 14L6.68817 10.6279L8.1158 12.0556C8.45857 12.3984 9.01509 12.3984 9.35833 12.0556C9.82781 11.5857 10.0917 10.9487 10.0917 10.2843C10.0917 9.91739 10.0088 9.5599 9.8576 9.23341L12.5882 6.05867C12.7349 6.15383 12.9069 6.20659 13.0847 6.20659C13.3274 6.20659 13.5603 6.11016 13.7319 5.93812C14.0894 5.58057 14.0894 5.00116 13.7319 4.64364Z" fill="#2E323E"/>
</svg>
