<svg width="32" height="32" viewBox="0 0 32 32" fill="none" xmlns="http://www.w3.org/2000/svg">
<path d="M30.5312 16C30.5312 24.0254 24.0254 30.5312 16 30.5312C7.97461 30.5312 1.46875 24.0254 1.46875 16C1.46875 7.97461 7.97461 1.46875 16 1.46875C24.0254 1.46875 30.5312 7.97461 30.5312 16Z" stroke="white" stroke-width="0.9375"/>
<path fill-rule="evenodd" clip-rule="evenodd" d="M21.53 16.8483L13.53 21.8481C13.3681 21.9492 13.1841 22 13 22C12.8333 22 12.6662 21.9585 12.5151 21.8745C12.1972 21.6983 12 21.3638 12 21V11.0004C12 10.6367 12.1972 10.3022 12.5151 10.126C12.833 9.94871 13.2217 9.95946 13.53 10.1523L21.53 15.1521C21.8222 15.3353 22 15.6556 22 16.0002C22 16.3449 21.8222 16.6653 21.53 16.8483Z" fill="white"/>
</svg>
