<svg width="16" height="16" viewBox="0 0 16 16" fill="none" xmlns="http://www.w3.org/2000/svg">
<path fill-rule="evenodd" clip-rule="evenodd" d="M7.4 7.4V2.6C7.4 2.26863 7.66863 2 8 2C8.33137 2 8.6 2.26863 8.6 2.6V7.4H13.4C13.7314 7.4 14 7.66863 14 8C14 8.33137 13.7314 8.6 13.4 8.6H8.6V13.4C8.6 13.7314 8.33137 14 8 14C7.66863 14 7.4 13.7314 7.4 13.4V8.6H2.6C2.26863 8.6 2 8.33137 2 8C2 7.66863 2.26863 7.4 2.6 7.4H7.4Z" fill="#2E323E"/>
<mask id="mask0" mask-type="alpha" maskUnits="userSpaceOnUse" x="2" y="2" width="12" height="12">
<path fill-rule="evenodd" clip-rule="evenodd" d="M7.4 7.4V2.6C7.4 2.26863 7.66863 2 8 2C8.33137 2 8.6 2.26863 8.6 2.6V7.4H13.4C13.7314 7.4 14 7.66863 14 8C14 8.33137 13.7314 8.6 13.4 8.6H8.6V13.4C8.6 13.7314 8.33137 14 8 14C7.66863 14 7.4 13.7314 7.4 13.4V8.6H2.6C2.26863 8.6 2 8.33137 2 8C2 7.66863 2.26863 7.4 2.6 7.4H7.4Z" fill="white"/>
</mask>
<g mask="url(#mask0)">
</g>
</svg>
