<svg width="24" height="24" viewBox="0 0 24 24" fill="none" xmlns="http://www.w3.org/2000/svg">
<path fill-rule="evenodd" clip-rule="evenodd" d="M11.1 11.1V3.9C11.1 3.40294 11.5029 3 12 3C12.4971 3 12.9 3.40294 12.9 3.9V11.1H20.1C20.5971 11.1 21 11.5029 21 12C21 12.4971 20.5971 12.9 20.1 12.9H12.9V20.1C12.9 20.5971 12.4971 21 12 21C11.5029 21 11.1 20.5971 11.1 20.1V12.9H3.9C3.40294 12.9 3 12.4971 3 12C3 11.5029 3.40294 11.1 3.9 11.1H11.1Z" fill="#2E323E"/>
<mask id="mask0" mask-type="alpha" maskUnits="userSpaceOnUse" x="3" y="3" width="18" height="18">
<path fill-rule="evenodd" clip-rule="evenodd" d="M11.1 11.1V3.9C11.1 3.40294 11.5029 3 12 3C12.4971 3 12.9 3.40294 12.9 3.9V11.1H20.1C20.5971 11.1 21 11.5029 21 12C21 12.4971 20.5971 12.9 20.1 12.9H12.9V20.1C12.9 20.5971 12.4971 21 12 21C11.5029 21 11.1 20.5971 11.1 20.1V12.9H3.9C3.40294 12.9 3 12.4971 3 12C3 11.5029 3.40294 11.1 3.9 11.1H11.1Z" fill="white"/>
</mask>
<g mask="url(#mask0)">
</g>
</svg>
