<svg width="24" height="24" viewBox="0 0 24 24" fill="none" xmlns="http://www.w3.org/2000/svg">
<path fill-rule="evenodd" clip-rule="evenodd" d="M12 2.25C9.37665 2.25 7.25 4.37665 7.25 7C7.25 9.62335 9.37665 11.75 12 11.75C14.6234 11.75 16.75 9.62335 16.75 7C16.75 4.37665 14.6234 2.25 12 2.25ZM12 3.75C13.7949 3.75 15.25 5.20507 15.25 7C15.25 8.79493 13.7949 10.25 12 10.25C10.2051 10.25 8.75 8.79493 8.75 7C8.75 5.20507 10.2051 3.75 12 3.75ZM20.7451 18.7826C20.6315 16.2601 18.5505 14.25 16 14.25H8L7.78257 14.2549C5.26014 14.3685 3.25 16.4495 3.25 19V21L3.25685 21.1018C3.30651 21.4678 3.6203 21.75 4 21.75C4.41421 21.75 4.75 21.4142 4.75 21V19L4.75514 18.8156C4.85075 17.1065 6.26697 15.75 8 15.75H16L16.1844 15.7551C17.8935 15.8508 19.25 17.267 19.25 19V21L19.2568 21.1018C19.3065 21.4678 19.6203 21.75 20 21.75C20.4142 21.75 20.75 21.4142 20.75 21V19L20.7451 18.7826Z" fill="white"/>
</svg>
