<svg id="_OQuestion" data-name=" OQuestion" xmlns="http://www.w3.org/2000/svg" width="75" height="75" viewBox="0 0 75 75">
  <rect id="Rectangle_2106" data-name="Rectangle 2106" width="75" height="75" rx="10" transform="translate(0)" fill="none"/>
  <g id="Group_3975" data-name="Group 3975" transform="translate(22 22)">
    <path id="Path_4042" data-name="Path 4042" d="M4760.969,1631.753a15.226,15.226,0,0,0-15.209,15.208v14.209a1,1,0,0,0,1,1h14.209a15.208,15.208,0,1,0,0-30.417Zm0,28.417H4747.76v-13.209a13.209,13.209,0,1,1,13.209,13.209Z" transform="translate(-4745.76 -1631.753)" fill="#58595b"/>
    <path id="Path_4043" data-name="Path 4043" d="M4761.215,1638.934h-.492a4.37,4.37,0,0,0-4.364,4.365,1,1,0,0,0,2,0,2.368,2.368,0,0,1,2.364-2.365h.492a2.368,2.368,0,0,1,2.365,2.365c0,1.266-.583,1.588-1.8,2.141-1.1.5-2.6,1.187-2.637,3.254v.863a1,1,0,0,0,2,0v-.846c.012-.727.368-.95,1.467-1.45,1.182-.54,2.967-1.354,2.967-3.962A4.37,4.37,0,0,0,4761.215,1638.934Z" transform="translate(-4745.76 -1631.753)" fill="#58595b"/>
    <path id="Path_4044" data-name="Path 4044" d="M4760.146,1651.454a1.267,1.267,0,1,0,1.267,1.267A1.267,1.267,0,0,0,4760.146,1651.454Z" transform="translate(-4745.76 -1631.753)" fill="#58595b"/>
  </g>
</svg>
