<svg width="16" height="16" viewBox="0 0 16 16" fill="none" xmlns="http://www.w3.org/2000/svg">
<path fill-rule="evenodd" clip-rule="evenodd" d="M5.5 4.329C3.57 4.329 2 5.899 2 7.829C2 8.138 2.04 8.443 2.118 8.736C2.19 9.002 2.032 9.277 1.766 9.349C1.722 9.36 1.679 9.366 1.636 9.366C1.415 9.366 1.213 9.219 1.153 8.996C1.052 8.618 1 8.225 1 7.829C1 5.348 3.019 3.329 5.5 3.329H10V2L12.828 3.829L10 5.658V4.329H5.5ZM13.5989 6.4135C13.8699 6.3415 14.1399 6.4995 14.2109 6.7665C14.3129 7.1435 14.3639 7.5365 14.3639 7.9335C14.3639 10.4145 12.3459 12.4335 9.8639 12.4335H5.3639V13.7615L2.5359 11.9335L5.3639 10.1045V11.4335H9.8639C11.7939 11.4335 13.3639 9.8625 13.3639 7.9335C13.3639 7.6235 13.3239 7.3185 13.2459 7.0265C13.1739 6.7595 13.3319 6.4855 13.5989 6.4135Z" fill="white"/>
</svg>
