<svg width="24" height="24" viewBox="0 0 24 24" fill="none" xmlns="http://www.w3.org/2000/svg">
<path fill-rule="evenodd" clip-rule="evenodd" d="M19.7152 2.78217H16.9873V1.72178C16.9873 1.32313 16.6641 1 16.2655 1C15.8669 1 15.5437 1.32313 15.5437 1.72178V2.78217H12.9453V1.72178C12.9453 1.32313 12.6221 1 12.2235 1C11.8249 1 11.5017 1.32313 11.5017 1.72178V2.78217H8.90328V1.72178C8.90328 1.32313 8.58009 1 8.18149 1C7.78289 1 7.45971 1.32313 7.45971 1.72178V2.78217H4.73176C4.33317 2.78217 4.00998 3.10536 4.00998 3.50396V22.2685C4.00998 22.6671 4.33317 22.9903 4.73176 22.9903H19.7152C20.1138 22.9903 20.437 22.6671 20.437 22.2685V3.50396C20.437 3.10536 20.1138 2.78217 19.7152 2.78217ZM5.45355 21.5467V4.22574H7.45971V5.06821C7.45971 5.46687 7.78289 5.78999 8.18149 5.78999C8.58009 5.78999 8.90328 5.46687 8.90328 5.06821V4.22574H11.5017V5.06821C11.5017 5.46687 11.8249 5.78999 12.2235 5.78999C12.6221 5.78999 12.9453 5.46687 12.9453 5.06821V4.22574H15.5437V5.06821C15.5437 5.46687 15.8669 5.78999 16.2655 5.78999C16.6641 5.78999 16.9873 5.46687 16.9873 5.06821V4.22574H18.9934V21.5467H5.45355ZM7.22874 9.7918C7.22874 9.3932 7.55192 9.07002 7.95052 9.07002H16.4965C16.8951 9.07002 17.2182 9.3932 17.2182 9.7918C17.2182 10.1904 16.8951 10.5136 16.4965 10.5136H7.95052C7.55192 10.5136 7.22874 10.1904 7.22874 9.7918ZM7.95052 13.112C7.55192 13.112 7.22874 13.4353 7.22874 13.8338C7.22874 14.2324 7.55192 14.5556 7.95052 14.5556H16.4965C16.8951 14.5556 17.2182 14.2324 17.2182 13.8338C17.2182 13.4352 16.8951 13.112 16.4965 13.112H7.95052ZM7.22874 17.8758C7.22874 17.4772 7.55192 17.154 7.95052 17.154H16.4965C16.8951 17.154 17.2182 17.4772 17.2182 17.8758C17.2182 18.2744 16.8951 18.5976 16.4965 18.5976H7.95052C7.55192 18.5976 7.22874 18.2744 7.22874 17.8758Z" fill="white"/>
</svg>
