<svg width="24" height="24" viewBox="0 0 24 24" fill="none" xmlns="http://www.w3.org/2000/svg">
<path fill-rule="evenodd" clip-rule="evenodd" d="M4.70136 4.6952L2.31908 7.90651L2.32 7.97301L2.3053 8.00643L2.298 8.04501L2.32 7.98301V7.99701L2.27964 8.11392L2.25 8.33212V9.50087C2.24623 10.1744 2.51331 10.8253 2.99202 11.3048L3.13359 11.4371C3.28 11.5634 3.44048 11.6721 3.61144 11.7611L3.72 11.812L3.72007 19.3702C3.7218 19.985 4.21816 20.4814 4.83091 20.4831L19.0943 20.4831L19.2156 20.4763C19.7732 20.4147 20.2057 19.9442 20.2073 19.3723L20.207 11.808C21.0952 11.3957 21.6845 10.5018 21.6773 9.49198L21.6774 8.32858L21.6666 8.20219L21.644 8.09001L21.622 8.01701L21.6229 7.96996L21.519 7.80201L21.5057 7.77268L21.467 7.71901L19.6447 4.77584C19.44 4.44725 19.0818 4.24914 18.6969 4.25001L5.59174 4.25001L5.46151 4.25765C5.16079 4.29306 4.88522 4.45005 4.70136 4.6952ZM18.483 5.75001L20.177 8.48401L20.1774 9.49732C20.181 10.0059 19.8212 10.4385 19.3259 10.5266L18.7073 10.6366L18.707 18.983H5.22L5.22007 10.6369L4.59748 10.5296C4.39184 10.4941 4.20243 10.3954 4.05574 10.2473L3.96423 10.1427C3.82438 9.9598 3.7487 9.73629 3.74999 9.50505L3.749 8.49601L5.786 5.75001H18.483ZM14.49 10.6358L13.856 9.63193L13.2218 10.6356C12.9451 11.0736 12.4642 11.3401 11.9463 11.3426C11.4283 11.345 10.9449 11.0831 10.6641 10.6479L10.0346 9.67187L9.40404 10.6473C9.12402 11.0804 8.64352 11.3422 8.12774 11.3426C8.04968 11.343 7.97571 11.3375 7.90246 11.3261L7.03702 11.1913V16.7481H16.8455V11.2115L15.9942 11.3276C15.9205 11.3377 15.8467 11.3427 15.7734 11.3426C15.252 11.3426 14.7679 11.0758 14.49 10.6358ZM13.855 12.154L13.9988 12.2661C14.3544 12.5245 14.7642 12.7036 15.2 12.7878L15.345 12.811V15.248H8.537V12.814L8.73456 12.7812C9.19219 12.6873 9.62098 12.4881 9.98717 12.2018L10.033 12.162L10.084 12.2049C10.6106 12.6154 11.2667 12.8458 11.9534 12.8426C12.6401 12.8393 13.294 12.6027 13.8167 12.1872L13.855 12.154Z" fill="white"/>
</svg>
