<svg width="16" height="16" viewBox="0 0 16 16" fill="none" xmlns="http://www.w3.org/2000/svg">
<path fill-rule="evenodd" clip-rule="evenodd" d="M11.5597 5.17536L11.5429 6.41296L14.2057 4.74229L11.5887 2.99976L11.5728 4.24109C10.6721 4.24482 9.79667 4.55376 9.1676 5.09322L3.2792 10.1444C2.8144 10.5439 2.15267 10.7735 1.46667 10.7735C1.20907 10.7735 1 10.9816 1 11.2402C1 11.4978 1.20907 11.7068 1.46667 11.7068C2.37293 11.7068 3.25493 11.3951 3.88773 10.8528L9.77613 5.80162C10.2344 5.40869 10.8831 5.18189 11.5597 5.17536ZM1.46667 5.17312C2.1536 5.17312 2.8144 5.40272 3.2792 5.80125L4.23493 6.62072C4.32267 6.69632 4.43093 6.73365 4.5392 6.73365C4.66987 6.73365 4.80053 6.67858 4.89293 6.57125C5.06093 6.37525 5.03853 6.08032 4.84253 5.91232L3.88773 5.09378C3.25493 4.55058 2.37293 4.23978 1.46667 4.23978C1.20907 4.23978 1 4.44885 1 4.70645C1 4.96405 1.20907 5.17312 1.46667 5.17312ZM9.77576 10.1445C10.2378 10.5402 10.892 10.768 11.5724 10.7717L11.5892 9.53318L14.2054 11.2757L11.5435 12.9464L11.5594 11.7041C10.6643 11.6976 9.79349 11.3896 9.16816 10.8529L8.19656 10.0194C8.00056 9.85238 7.97816 9.55745 8.14616 9.36145C8.31416 9.16638 8.60909 9.14398 8.80416 9.31198L9.77576 10.1445Z" fill="white"/>
</svg>
