<svg id="Text_" xmlns="http://www.w3.org/2000/svg" width="75" height="75" viewBox="0 0 75 75">
  <rect id="Rectangle_2098" data-name="Rectangle 2098" width="75" height="75" rx="10" fill="none"/>
  <g id="Text-icon" transform="translate(17 17)">
    <rect id="Rectangle_2052" data-name="Rectangle 2052" width="42" height="42" fill="none"/>
    <path id="Path_4011" data-name="Path 4011" d="M4412.242,1631.43v6.973a.429.429,0,0,0,.429.429h2.658a.429.429,0,0,0,.429-.429v-2.561a1.155,1.155,0,0,1,1.155-1.155h8.571v21.364a1.155,1.155,0,0,1-1.155,1.155H4421.7a.429.429,0,0,0-.429.429v2.658a.429.429,0,0,0,.429.429h11.079a.429.429,0,0,0,.429-.429v-2.658a.429.429,0,0,0-.429-.429h-2.627a1.155,1.155,0,0,1-1.155-1.155v-21.364h8.571a1.156,1.156,0,0,1,1.156,1.155v2.561a.429.429,0,0,0,.428.429h2.658a.429.429,0,0,0,.429-.429v-6.973a.429.429,0,0,0-.429-.429h-29.142A.429.429,0,0,0,4412.242,1631.43Z" transform="translate(-4406.242 -1625.001)" fill="#58595b"/>
  </g>
</svg>
