<svg width="32" height="32" viewBox="0 0 32 32" fill="none" xmlns="http://www.w3.org/2000/svg">
<path fill-rule="evenodd" clip-rule="evenodd" d="M16 31C7.71571 31 1 24.2843 1 16C1 7.71589 7.71571 1 16 1C24.2843 1 31 7.71589 31 16C31 24.2843 24.2843 31 16 31Z" fill="#FFCE00"/>
<path fill-rule="evenodd" clip-rule="evenodd" d="M10.5901 11.8734C10.5901 13.1248 9.98827 14.1393 9.24581 14.1393C8.50336 14.1393 7.90152 13.1248 7.90152 11.8734C7.90152 10.6221 8.50336 9.60742 9.24581 9.60742C9.98827 9.60742 10.5901 10.6221 10.5901 11.8734Z" fill="#562912"/>
<path fill-rule="evenodd" clip-rule="evenodd" d="M24.0327 11.8734C24.0327 13.1248 23.4309 14.1393 22.6884 14.1393C21.9461 14.1393 21.3443 13.1248 21.3443 11.8734C21.3443 10.6221 21.9461 9.60742 22.6884 9.60742C23.4309 9.60742 24.0327 10.6221 24.0327 11.8734Z" fill="#562912"/>
<path fill-rule="evenodd" clip-rule="evenodd" d="M20.5817 17.0129C21.7988 17.0129 22.5878 18.293 22.046 19.3829C21.0243 21.4375 18.7151 22.8709 16.03 22.8709C13.3447 22.8709 11.0354 21.4375 10.014 19.3829C9.47195 18.293 10.261 17.0129 11.4781 17.0129H20.5817Z" fill="#562912"/>
</svg>
